<mxfile host="app.diagrams.net" modified="2021-06-07T02:02:35.604Z" agent="5.0 (Macintosh; Intel Mac OS X 10_15_7) AppleWebKit/537.36 (KHTML, like Gecko) Chrome/91.0.4472.77 Safari/537.36" etag="902jiiKfcU256JYwBFdK" version="14.7.6" type="github">
  <diagram id="KoOCsL7IerZmDVaIZsQJ" name="Page-1">
    <mxGraphModel dx="1298" dy="777" grid="1" gridSize="10" guides="1" tooltips="1" connect="1" arrows="1" fold="1" page="1" pageScale="1" pageWidth="827" pageHeight="1169" math="0" shadow="0">
      <root>
        <mxCell id="0" />
        <mxCell id="1" parent="0" />
        <mxCell id="SIA6TbX_IePgMJy5oAV3-4" value=": Meeting Room View" style="shape=umlLifeline;perimeter=lifelinePerimeter;whiteSpace=wrap;html=1;container=1;collapsible=0;recursiveResize=0;outlineConnect=0;" parent="1" vertex="1">
          <mxGeometry x="560" y="40" width="120" height="590" as="geometry" />
        </mxCell>
        <mxCell id="SIA6TbX_IePgMJy5oAV3-6" value=": Team Controller" style="shape=umlLifeline;perimeter=lifelinePerimeter;whiteSpace=wrap;html=1;container=1;collapsible=0;recursiveResize=0;outlineConnect=0;" parent="1" vertex="1">
          <mxGeometry x="730" y="40" width="120" height="590" as="geometry" />
        </mxCell>
        <mxCell id="SIA6TbX_IePgMJy5oAV3-10" value=": Team Data" style="shape=umlLifeline;perimeter=lifelinePerimeter;whiteSpace=wrap;html=1;container=1;collapsible=0;recursiveResize=0;outlineConnect=0;" parent="1" vertex="1">
          <mxGeometry x="1080" y="40" width="120" height="590" as="geometry" />
        </mxCell>
        <mxCell id="SIA6TbX_IePgMJy5oAV3-12" value=": DB Handler" style="shape=umlLifeline;perimeter=lifelinePerimeter;whiteSpace=wrap;html=1;container=1;collapsible=0;recursiveResize=0;outlineConnect=0;" parent="1" vertex="1">
          <mxGeometry x="900" y="40" width="120" height="590" as="geometry" />
        </mxCell>
        <mxCell id="SIA6TbX_IePgMJy5oAV3-13" value="" style="shape=umlLifeline;participant=umlActor;perimeter=lifelinePerimeter;whiteSpace=wrap;html=1;container=1;collapsible=0;recursiveResize=0;verticalAlign=top;spacingTop=36;outlineConnect=0;size=70;" parent="1" vertex="1">
          <mxGeometry x="90" y="30" width="40" height="630" as="geometry" />
        </mxCell>
        <mxCell id="SIA6TbX_IePgMJy5oAV3-14" value="" style="html=1;points=[];perimeter=orthogonalPerimeter;" parent="SIA6TbX_IePgMJy5oAV3-13" vertex="1">
          <mxGeometry x="15" y="80" width="10" height="510" as="geometry" />
        </mxCell>
        <mxCell id="SIA6TbX_IePgMJy5oAV3-15" value="User" style="text;html=1;strokeColor=none;fillColor=none;align=center;verticalAlign=middle;whiteSpace=wrap;rounded=0;" parent="SIA6TbX_IePgMJy5oAV3-13" vertex="1">
          <mxGeometry y="60" width="40" height="20" as="geometry" />
        </mxCell>
        <mxCell id="e2vInGb-3fhjZgSA6Eiw-13" style="edgeStyle=orthogonalEdgeStyle;rounded=0;orthogonalLoop=1;jettySize=auto;html=1;endArrow=block;endFill=1;" parent="1" source="SIA6TbX_IePgMJy5oAV3-28" target="uCHtYthcjUW0IdeamV3n-1" edge="1">
          <mxGeometry relative="1" as="geometry">
            <Array as="points">
              <mxPoint x="910" y="290" />
              <mxPoint x="910" y="290" />
            </Array>
          </mxGeometry>
        </mxCell>
        <mxCell id="e2vInGb-3fhjZgSA6Eiw-14" value="saveTeamData&lt;br&gt;(teamID)" style="edgeLabel;html=1;align=center;verticalAlign=middle;resizable=0;points=[];" parent="e2vInGb-3fhjZgSA6Eiw-13" vertex="1" connectable="0">
          <mxGeometry x="-0.2" y="1" relative="1" as="geometry">
            <mxPoint x="11" y="1" as="offset" />
          </mxGeometry>
        </mxCell>
        <mxCell id="e2vInGb-3fhjZgSA6Eiw-27" style="edgeStyle=orthogonalEdgeStyle;rounded=0;orthogonalLoop=1;jettySize=auto;html=1;endArrow=open;endFill=0;dashed=1;" parent="1" source="SIA6TbX_IePgMJy5oAV3-28" target="e2vInGb-3fhjZgSA6Eiw-2" edge="1">
          <mxGeometry relative="1" as="geometry">
            <Array as="points">
              <mxPoint x="580" y="450" />
              <mxPoint x="580" y="450" />
            </Array>
          </mxGeometry>
        </mxCell>
        <mxCell id="e2vInGb-3fhjZgSA6Eiw-28" value="acknowledge" style="edgeLabel;html=1;align=center;verticalAlign=middle;resizable=0;points=[];" parent="e2vInGb-3fhjZgSA6Eiw-27" vertex="1" connectable="0">
          <mxGeometry x="0.0971" y="-1" relative="1" as="geometry">
            <mxPoint x="17" as="offset" />
          </mxGeometry>
        </mxCell>
        <mxCell id="e2vInGb-3fhjZgSA6Eiw-40" style="edgeStyle=orthogonalEdgeStyle;rounded=0;orthogonalLoop=1;jettySize=auto;html=1;endArrow=open;endFill=0;" parent="1" source="SIA6TbX_IePgMJy5oAV3-28" target="e2vInGb-3fhjZgSA6Eiw-39" edge="1">
          <mxGeometry relative="1" as="geometry">
            <Array as="points">
              <mxPoint x="760" y="520" />
              <mxPoint x="760" y="520" />
            </Array>
          </mxGeometry>
        </mxCell>
        <mxCell id="e2vInGb-3fhjZgSA6Eiw-41" value="change view" style="edgeLabel;html=1;align=center;verticalAlign=middle;resizable=0;points=[];" parent="e2vInGb-3fhjZgSA6Eiw-40" vertex="1" connectable="0">
          <mxGeometry x="0.175" y="4" relative="1" as="geometry">
            <mxPoint y="-4" as="offset" />
          </mxGeometry>
        </mxCell>
        <mxCell id="NmIyHT3RoWmAJ3437okX-1" value="createTeamId()" style="edgeStyle=orthogonalEdgeStyle;rounded=0;orthogonalLoop=1;jettySize=auto;html=1;endArrow=block;endFill=1;" edge="1" parent="1" source="SIA6TbX_IePgMJy5oAV3-28" target="uCHtYthcjUW0IdeamV3n-1">
          <mxGeometry relative="1" as="geometry">
            <Array as="points">
              <mxPoint x="880" y="230" />
              <mxPoint x="880" y="230" />
            </Array>
          </mxGeometry>
        </mxCell>
        <mxCell id="SIA6TbX_IePgMJy5oAV3-28" value="" style="html=1;points=[];perimeter=orthogonalPerimeter;" parent="1" vertex="1">
          <mxGeometry x="785" y="200" width="10" height="380" as="geometry" />
        </mxCell>
        <mxCell id="uCHtYthcjUW0IdeamV3n-10" style="edgeStyle=orthogonalEdgeStyle;rounded=0;orthogonalLoop=1;jettySize=auto;html=1;dashed=1;endArrow=open;endFill=0;" parent="1" edge="1">
          <mxGeometry relative="1" as="geometry">
            <Array as="points">
              <mxPoint x="860" y="430" />
              <mxPoint x="860" y="430" />
            </Array>
            <mxPoint x="955" y="430" as="sourcePoint" />
            <mxPoint x="795" y="430" as="targetPoint" />
          </mxGeometry>
        </mxCell>
        <mxCell id="uCHtYthcjUW0IdeamV3n-29" value="return team data" style="edgeLabel;html=1;align=center;verticalAlign=middle;resizable=0;points=[];" parent="uCHtYthcjUW0IdeamV3n-10" vertex="1" connectable="0">
          <mxGeometry x="0.0625" y="3" relative="1" as="geometry">
            <mxPoint y="-13" as="offset" />
          </mxGeometry>
        </mxCell>
        <mxCell id="e2vInGb-3fhjZgSA6Eiw-23" style="edgeStyle=orthogonalEdgeStyle;rounded=0;orthogonalLoop=1;jettySize=auto;html=1;endArrow=open;endFill=0;" parent="1" source="uCHtYthcjUW0IdeamV3n-1" target="e2vInGb-3fhjZgSA6Eiw-18" edge="1">
          <mxGeometry relative="1" as="geometry">
            <Array as="points">
              <mxPoint x="1230" y="370" />
              <mxPoint x="1230" y="370" />
            </Array>
          </mxGeometry>
        </mxCell>
        <mxCell id="e2vInGb-3fhjZgSA6Eiw-24" value="setTeamMember&lt;br&gt;(teamId, userId, type)" style="edgeLabel;html=1;align=center;verticalAlign=middle;resizable=0;points=[];" parent="e2vInGb-3fhjZgSA6Eiw-23" vertex="1" connectable="0">
          <mxGeometry x="0.0343" y="-3" relative="1" as="geometry">
            <mxPoint x="-1" y="-4" as="offset" />
          </mxGeometry>
        </mxCell>
        <mxCell id="NmIyHT3RoWmAJ3437okX-4" style="edgeStyle=orthogonalEdgeStyle;rounded=0;orthogonalLoop=1;jettySize=auto;html=1;endArrow=open;endFill=0;" edge="1" parent="1" source="uCHtYthcjUW0IdeamV3n-1" target="NmIyHT3RoWmAJ3437okX-3">
          <mxGeometry relative="1" as="geometry">
            <Array as="points">
              <mxPoint x="1050" y="240" />
              <mxPoint x="1050" y="240" />
            </Array>
          </mxGeometry>
        </mxCell>
        <mxCell id="NmIyHT3RoWmAJ3437okX-5" value="auto_increment teamId" style="edgeLabel;html=1;align=center;verticalAlign=middle;resizable=0;points=[];" vertex="1" connectable="0" parent="NmIyHT3RoWmAJ3437okX-4">
          <mxGeometry x="0.0235" y="-1" relative="1" as="geometry">
            <mxPoint x="-2" y="-1" as="offset" />
          </mxGeometry>
        </mxCell>
        <mxCell id="NmIyHT3RoWmAJ3437okX-7" style="edgeStyle=orthogonalEdgeStyle;rounded=0;orthogonalLoop=1;jettySize=auto;html=1;dashed=1;endArrow=open;endFill=0;" edge="1" parent="1" source="uCHtYthcjUW0IdeamV3n-1" target="SIA6TbX_IePgMJy5oAV3-28">
          <mxGeometry relative="1" as="geometry">
            <Array as="points">
              <mxPoint x="930" y="270" />
              <mxPoint x="930" y="270" />
            </Array>
          </mxGeometry>
        </mxCell>
        <mxCell id="NmIyHT3RoWmAJ3437okX-8" value="acknowledge" style="edgeLabel;html=1;align=center;verticalAlign=middle;resizable=0;points=[];" vertex="1" connectable="0" parent="NmIyHT3RoWmAJ3437okX-7">
          <mxGeometry x="-0.05" relative="1" as="geometry">
            <mxPoint as="offset" />
          </mxGeometry>
        </mxCell>
        <mxCell id="uCHtYthcjUW0IdeamV3n-1" value="" style="html=1;points=[];perimeter=orthogonalPerimeter;" parent="1" vertex="1">
          <mxGeometry x="955" y="220" width="10" height="220" as="geometry" />
        </mxCell>
        <mxCell id="uCHtYthcjUW0IdeamV3n-8" style="edgeStyle=orthogonalEdgeStyle;rounded=0;orthogonalLoop=1;jettySize=auto;html=1;endArrow=open;endFill=0;" parent="1" source="uCHtYthcjUW0IdeamV3n-1" target="uCHtYthcjUW0IdeamV3n-5" edge="1">
          <mxGeometry relative="1" as="geometry">
            <mxPoint x="1125" y="280" as="sourcePoint" />
            <Array as="points">
              <mxPoint x="1010" y="310" />
              <mxPoint x="1010" y="310" />
            </Array>
          </mxGeometry>
        </mxCell>
        <mxCell id="uCHtYthcjUW0IdeamV3n-26" value="setTeam&lt;br&gt;(teamId, tName, &lt;br&gt;tDescription,createTime)" style="edgeLabel;html=1;align=center;verticalAlign=middle;resizable=0;points=[];" parent="uCHtYthcjUW0IdeamV3n-8" vertex="1" connectable="0">
          <mxGeometry x="-0.1667" y="4" relative="1" as="geometry">
            <mxPoint x="4" y="-6" as="offset" />
          </mxGeometry>
        </mxCell>
        <mxCell id="e2vInGb-3fhjZgSA6Eiw-15" style="edgeStyle=orthogonalEdgeStyle;rounded=0;orthogonalLoop=1;jettySize=auto;html=1;dashed=1;endArrow=open;endFill=0;" parent="1" source="uCHtYthcjUW0IdeamV3n-5" target="uCHtYthcjUW0IdeamV3n-1" edge="1">
          <mxGeometry relative="1" as="geometry">
            <Array as="points">
              <mxPoint x="1090" y="330" />
              <mxPoint x="1090" y="330" />
            </Array>
          </mxGeometry>
        </mxCell>
        <mxCell id="e2vInGb-3fhjZgSA6Eiw-16" value="acknowledge" style="edgeLabel;html=1;align=center;verticalAlign=middle;resizable=0;points=[];" parent="e2vInGb-3fhjZgSA6Eiw-15" vertex="1" connectable="0">
          <mxGeometry x="0.0941" y="-3" relative="1" as="geometry">
            <mxPoint y="3" as="offset" />
          </mxGeometry>
        </mxCell>
        <mxCell id="uCHtYthcjUW0IdeamV3n-5" value="" style="html=1;points=[];perimeter=orthogonalPerimeter;" parent="1" vertex="1">
          <mxGeometry x="1135" y="300" width="10" height="40" as="geometry" />
        </mxCell>
        <mxCell id="e2vInGb-3fhjZgSA6Eiw-1" value=": Main View" style="shape=umlLifeline;perimeter=lifelinePerimeter;whiteSpace=wrap;html=1;container=1;collapsible=0;recursiveResize=0;outlineConnect=0;" parent="1" vertex="1">
          <mxGeometry x="200" y="40" width="120" height="590" as="geometry" />
        </mxCell>
        <mxCell id="e2vInGb-3fhjZgSA6Eiw-2" value="" style="html=1;points=[];perimeter=orthogonalPerimeter;" parent="e2vInGb-3fhjZgSA6Eiw-1" vertex="1">
          <mxGeometry x="55" y="90" width="10" height="380" as="geometry" />
        </mxCell>
        <mxCell id="e2vInGb-3fhjZgSA6Eiw-3" style="edgeStyle=orthogonalEdgeStyle;rounded=0;orthogonalLoop=1;jettySize=auto;html=1;endArrow=block;endFill=1;" parent="1" source="SIA6TbX_IePgMJy5oAV3-14" target="e2vInGb-3fhjZgSA6Eiw-2" edge="1">
          <mxGeometry relative="1" as="geometry">
            <Array as="points">
              <mxPoint x="180" y="140" />
              <mxPoint x="180" y="140" />
            </Array>
          </mxGeometry>
        </mxCell>
        <mxCell id="e2vInGb-3fhjZgSA6Eiw-4" value="select&lt;br&gt;Create Team Btn" style="edgeLabel;html=1;align=center;verticalAlign=middle;resizable=0;points=[];" parent="e2vInGb-3fhjZgSA6Eiw-3" vertex="1" connectable="0">
          <mxGeometry x="-0.1532" y="2" relative="1" as="geometry">
            <mxPoint x="6" y="-18" as="offset" />
          </mxGeometry>
        </mxCell>
        <mxCell id="e2vInGb-3fhjZgSA6Eiw-5" style="edgeStyle=orthogonalEdgeStyle;rounded=0;orthogonalLoop=1;jettySize=auto;html=1;endArrow=block;endFill=1;" parent="1" source="e2vInGb-3fhjZgSA6Eiw-2" target="SIA6TbX_IePgMJy5oAV3-28" edge="1">
          <mxGeometry relative="1" as="geometry">
            <Array as="points">
              <mxPoint x="510" y="480" />
              <mxPoint x="510" y="480" />
            </Array>
          </mxGeometry>
        </mxCell>
        <mxCell id="e2vInGb-3fhjZgSA6Eiw-6" value="changeView()" style="edgeLabel;html=1;align=center;verticalAlign=middle;resizable=0;points=[];" parent="e2vInGb-3fhjZgSA6Eiw-5" vertex="1" connectable="0">
          <mxGeometry x="-0.3125" y="1" relative="1" as="geometry">
            <mxPoint x="55" y="-9" as="offset" />
          </mxGeometry>
        </mxCell>
        <mxCell id="e2vInGb-3fhjZgSA6Eiw-7" style="edgeStyle=orthogonalEdgeStyle;rounded=0;orthogonalLoop=1;jettySize=auto;html=1;endArrow=block;endFill=1;" parent="1" source="e2vInGb-3fhjZgSA6Eiw-2" target="SIA6TbX_IePgMJy5oAV3-28" edge="1">
          <mxGeometry relative="1" as="geometry">
            <Array as="points">
              <mxPoint x="490" y="220" />
              <mxPoint x="490" y="220" />
            </Array>
          </mxGeometry>
        </mxCell>
        <mxCell id="e2vInGb-3fhjZgSA6Eiw-8" value="createTeam()" style="edgeLabel;html=1;align=center;verticalAlign=middle;resizable=0;points=[];" parent="e2vInGb-3fhjZgSA6Eiw-7" vertex="1" connectable="0">
          <mxGeometry x="-0.0971" relative="1" as="geometry">
            <mxPoint x="17" y="-10" as="offset" />
          </mxGeometry>
        </mxCell>
        <mxCell id="e2vInGb-3fhjZgSA6Eiw-9" value=": Team Member Data" style="shape=umlLifeline;perimeter=lifelinePerimeter;whiteSpace=wrap;html=1;container=1;collapsible=0;recursiveResize=0;outlineConnect=0;" parent="1" vertex="1">
          <mxGeometry x="1260" y="40" width="120" height="590" as="geometry" />
        </mxCell>
        <mxCell id="e2vInGb-3fhjZgSA6Eiw-25" style="edgeStyle=orthogonalEdgeStyle;rounded=0;orthogonalLoop=1;jettySize=auto;html=1;dashed=1;endArrow=open;endFill=0;" parent="1" source="e2vInGb-3fhjZgSA6Eiw-18" target="uCHtYthcjUW0IdeamV3n-1" edge="1">
          <mxGeometry relative="1" as="geometry">
            <Array as="points">
              <mxPoint x="1050" y="400" />
              <mxPoint x="1050" y="400" />
            </Array>
          </mxGeometry>
        </mxCell>
        <mxCell id="e2vInGb-3fhjZgSA6Eiw-26" value="acknowledge" style="edgeLabel;html=1;align=center;verticalAlign=middle;resizable=0;points=[];" parent="e2vInGb-3fhjZgSA6Eiw-25" vertex="1" connectable="0">
          <mxGeometry x="-0.0114" relative="1" as="geometry">
            <mxPoint as="offset" />
          </mxGeometry>
        </mxCell>
        <mxCell id="e2vInGb-3fhjZgSA6Eiw-18" value="" style="html=1;points=[];perimeter=orthogonalPerimeter;" parent="1" vertex="1">
          <mxGeometry x="1315" y="355" width="10" height="55" as="geometry" />
        </mxCell>
        <mxCell id="e2vInGb-3fhjZgSA6Eiw-29" value=": Main Controller" style="shape=umlLifeline;perimeter=lifelinePerimeter;whiteSpace=wrap;html=1;container=1;collapsible=0;recursiveResize=0;outlineConnect=0;" parent="1" vertex="1">
          <mxGeometry x="380" y="40" width="120" height="590" as="geometry" />
        </mxCell>
        <mxCell id="e2vInGb-3fhjZgSA6Eiw-32" style="edgeStyle=orthogonalEdgeStyle;rounded=0;orthogonalLoop=1;jettySize=auto;html=1;dashed=1;endArrow=open;endFill=0;" parent="1" source="e2vInGb-3fhjZgSA6Eiw-30" target="e2vInGb-3fhjZgSA6Eiw-2" edge="1">
          <mxGeometry relative="1" as="geometry">
            <Array as="points">
              <mxPoint x="290" y="180" />
              <mxPoint x="290" y="180" />
            </Array>
          </mxGeometry>
        </mxCell>
        <mxCell id="e2vInGb-3fhjZgSA6Eiw-34" value="show Create Team Panel" style="edgeLabel;html=1;align=center;verticalAlign=middle;resizable=0;points=[];" parent="e2vInGb-3fhjZgSA6Eiw-32" vertex="1" connectable="0">
          <mxGeometry x="-0.0588" y="-1" relative="1" as="geometry">
            <mxPoint as="offset" />
          </mxGeometry>
        </mxCell>
        <mxCell id="e2vInGb-3fhjZgSA6Eiw-30" value="" style="html=1;points=[];perimeter=orthogonalPerimeter;" parent="1" vertex="1">
          <mxGeometry x="435" y="150" width="10" height="40" as="geometry" />
        </mxCell>
        <mxCell id="e2vInGb-3fhjZgSA6Eiw-31" style="edgeStyle=orthogonalEdgeStyle;rounded=0;orthogonalLoop=1;jettySize=auto;html=1;" parent="1" source="e2vInGb-3fhjZgSA6Eiw-2" target="e2vInGb-3fhjZgSA6Eiw-30" edge="1">
          <mxGeometry relative="1" as="geometry">
            <Array as="points">
              <mxPoint x="380" y="160" />
              <mxPoint x="380" y="160" />
            </Array>
          </mxGeometry>
        </mxCell>
        <mxCell id="e2vInGb-3fhjZgSA6Eiw-33" value="buttonClicked(createTeamBtn)" style="edgeLabel;html=1;align=center;verticalAlign=middle;resizable=0;points=[];" parent="e2vInGb-3fhjZgSA6Eiw-31" vertex="1" connectable="0">
          <mxGeometry x="-0.1412" y="2" relative="1" as="geometry">
            <mxPoint x="7" y="-8" as="offset" />
          </mxGeometry>
        </mxCell>
        <mxCell id="e2vInGb-3fhjZgSA6Eiw-37" style="edgeStyle=orthogonalEdgeStyle;rounded=0;orthogonalLoop=1;jettySize=auto;html=1;endArrow=block;endFill=1;" parent="1" source="SIA6TbX_IePgMJy5oAV3-14" target="e2vInGb-3fhjZgSA6Eiw-2" edge="1">
          <mxGeometry relative="1" as="geometry">
            <Array as="points">
              <mxPoint x="240" y="210" />
              <mxPoint x="240" y="210" />
            </Array>
          </mxGeometry>
        </mxCell>
        <mxCell id="e2vInGb-3fhjZgSA6Eiw-38" value="Input&lt;br&gt;Team name, &lt;br&gt;Team description" style="edgeLabel;html=1;align=center;verticalAlign=middle;resizable=0;points=[];" parent="e2vInGb-3fhjZgSA6Eiw-37" vertex="1" connectable="0">
          <mxGeometry x="-0.0714" y="-4" relative="1" as="geometry">
            <mxPoint as="offset" />
          </mxGeometry>
        </mxCell>
        <mxCell id="e2vInGb-3fhjZgSA6Eiw-42" style="edgeStyle=orthogonalEdgeStyle;rounded=0;orthogonalLoop=1;jettySize=auto;html=1;endArrow=open;endFill=0;dashed=1;" parent="1" source="e2vInGb-3fhjZgSA6Eiw-39" target="SIA6TbX_IePgMJy5oAV3-14" edge="1">
          <mxGeometry relative="1" as="geometry">
            <Array as="points">
              <mxPoint x="240" y="570" />
              <mxPoint x="240" y="570" />
            </Array>
          </mxGeometry>
        </mxCell>
        <mxCell id="e2vInGb-3fhjZgSA6Eiw-43" value="acknowledge" style="edgeLabel;html=1;align=center;verticalAlign=middle;resizable=0;points=[];" parent="e2vInGb-3fhjZgSA6Eiw-42" vertex="1" connectable="0">
          <mxGeometry x="0.1143" y="-2" relative="1" as="geometry">
            <mxPoint x="10" y="2" as="offset" />
          </mxGeometry>
        </mxCell>
        <mxCell id="e2vInGb-3fhjZgSA6Eiw-45" style="edgeStyle=orthogonalEdgeStyle;rounded=0;orthogonalLoop=1;jettySize=auto;html=1;dashed=1;endArrow=open;endFill=0;" parent="1" source="e2vInGb-3fhjZgSA6Eiw-39" target="SIA6TbX_IePgMJy5oAV3-28" edge="1">
          <mxGeometry relative="1" as="geometry">
            <Array as="points">
              <mxPoint x="670" y="550" />
              <mxPoint x="670" y="550" />
            </Array>
          </mxGeometry>
        </mxCell>
        <mxCell id="e2vInGb-3fhjZgSA6Eiw-46" value="acknowledge" style="edgeLabel;html=1;align=center;verticalAlign=middle;resizable=0;points=[];" parent="e2vInGb-3fhjZgSA6Eiw-45" vertex="1" connectable="0">
          <mxGeometry x="-0.1" relative="1" as="geometry">
            <mxPoint as="offset" />
          </mxGeometry>
        </mxCell>
        <mxCell id="e2vInGb-3fhjZgSA6Eiw-39" value="" style="html=1;points=[];perimeter=orthogonalPerimeter;" parent="1" vertex="1">
          <mxGeometry x="615" y="510" width="10" height="120" as="geometry" />
        </mxCell>
        <mxCell id="e2vInGb-3fhjZgSA6Eiw-49" style="edgeStyle=orthogonalEdgeStyle;rounded=0;orthogonalLoop=1;jettySize=auto;html=1;dashed=1;endArrow=open;endFill=0;" parent="1" source="e2vInGb-3fhjZgSA6Eiw-2" target="SIA6TbX_IePgMJy5oAV3-14" edge="1">
          <mxGeometry relative="1" as="geometry">
            <Array as="points">
              <mxPoint x="160" y="190" />
              <mxPoint x="160" y="190" />
            </Array>
          </mxGeometry>
        </mxCell>
        <mxCell id="e2vInGb-3fhjZgSA6Eiw-50" value="acknowledge" style="edgeLabel;html=1;align=center;verticalAlign=middle;resizable=0;points=[];" parent="e2vInGb-3fhjZgSA6Eiw-49" vertex="1" connectable="0">
          <mxGeometry x="-0.0571" y="-2" relative="1" as="geometry">
            <mxPoint as="offset" />
          </mxGeometry>
        </mxCell>
        <mxCell id="NmIyHT3RoWmAJ3437okX-6" value="acknowledge" style="edgeStyle=orthogonalEdgeStyle;rounded=0;orthogonalLoop=1;jettySize=auto;html=1;dashed=1;endArrow=open;endFill=0;" edge="1" parent="1" source="NmIyHT3RoWmAJ3437okX-3" target="uCHtYthcjUW0IdeamV3n-1">
          <mxGeometry relative="1" as="geometry">
            <Array as="points">
              <mxPoint x="1090" y="260" />
              <mxPoint x="1090" y="260" />
            </Array>
          </mxGeometry>
        </mxCell>
        <mxCell id="NmIyHT3RoWmAJ3437okX-3" value="" style="html=1;points=[];perimeter=orthogonalPerimeter;" vertex="1" parent="1">
          <mxGeometry x="1135" y="230" width="10" height="40" as="geometry" />
        </mxCell>
      </root>
    </mxGraphModel>
  </diagram>
</mxfile>
